<?xml version="1.0" encoding="utf-8"?>
<!-- Generator: Adobe Illustrator 22.0.0, SVG Export Plug-In . SVG Version: 6.00 Build 0)  -->
<svg version="1.1" id="Calque_1" xmlns="http://www.w3.org/2000/svg" xmlns:xlink="http://www.w3.org/1999/xlink" x="0px" y="0px"
	 viewBox="0 0 1920 1080" style="enable-background:new 0 0 1920 1080;" xml:space="preserve">
<style type="text/css">
	.st0{fill-rule:evenodd;clip-rule:evenodd;fill:#FFFFFF;}
</style>
<path class="st0" d="M1404.8,1042.2c2.6,1.4,5.6,2.3,8.8,2.3h327.8c10,0,18.2-8.1,18.2-18.2V892.2c0-9.8-5.1-18.4-12.8-23.3l0-0.2
	c-0.2-0.1-0.4-0.1-0.6-0.2c-4.1-2.5-8.9-3.9-14-3.9c-9.4-2.1-18.9-3.1-28.5-3.1c-88.1,3.5-162.3,14.5-247.7,36.6
	c-17.4,5.2-34.4,11.5-52.4,19.5c-3.1,2.1-5.5,5.1-6.8,8.6l-1.8,2l0.9,1.6c-0.1,0.9-0.2,1.8-0.2,2.7v63.2c-13.3-10-30-14.6-46.6-13
	c-56.5,2.7-113.2-0.1-169.1-8.3c-9.9-1.3-20-1.8-30-1.4l-4-0.1c-18-0.9-33.8,11.8-36.7,29.6c-2.9,17.8,8,34.9,25.4,39.8H1404.8"/>
<path class="st0" d="M1746.5,1011.4c0-10.8-8.7-19.5-19.5-19.5c-10.8,0-19.5,8.7-19.5,19.5c0,10.8,8.7,19.5,19.5,19.5
	C1737.7,1030.9,1746.5,1022.2,1746.5,1011.4"/>
<path class="st0" d="M355,193.3c-28.5,15.9-56.5,32.6-84.2,49.9C334.5,342,398.3,440.9,462,539.8c20.2-12.7,40.7-24.8,61.5-36.5
	c10-5.5,16.2-12,18.6-19.5c2.5-7.5,1.6-15.6-2.7-24.1c-16.9-33.9-33.8-67.8-50.7-101.7c-3.1-6.9-6.4-12.1-9.9-15.6
	c-3.5-3.5-9.3-5.4-17.5-5.7c3.5-7.8,5.3-13.8,5.1-18c-0.1-4.2-1.8-9.2-4.9-15c-17.2-34.5-34.5-69-51.7-103.6
	c-4.2-8.6-10.9-13.7-20.2-15.3C380.4,183.2,368.8,186,355,193.3 M477.1,498.4c-23-38.6-45.9-77.1-68.9-115.7
	c12.6-7.4,25.2-14.6,38-21.6c21.4,39.4,42.9,78.8,64.3,118.3C499.3,485.6,488.2,492,477.1,498.4z M393.3,357.6
	c-23-38.6-45.9-77.1-68.9-115.7c14.4-8.5,28.9-16.7,43.5-24.8c21.4,39.4,42.9,78.8,64.3,118.3C419.2,342.6,406.2,350,393.3,357.6z"
	/>
<path class="st0" d="M602.9,423.5c-35-85.3-70-170.7-105.1-256c-1.4-3.4-2.8-6.7-4.1-10.1c15.5-6.2,31.1-12.3,46.7-18.1
	c34.2,93.5,68.3,186.9,102.5,280.4c-12,4.5-24,9.1-35.8,13.9C605.7,430.2,604.3,426.8,602.9,423.5 M674.3,404.3
	c-30-91.9-60-183.9-90-275.8c-2.9-9.1-8.8-15.1-17.7-18.1c-8.9-2.9-20.8-1.8-35.6,3.3c-15.8,5.9-31.5,12-47.1,18.3
	c-13.2,5.6-22.6,12.7-28.1,21.2c-5.5,8.5-6.2,17.2-2.4,26.2c39.9,88.1,79.8,176.2,119.7,264.3c4.2,9,10.3,14.7,18.3,17.1
	c7.9,2.5,16.7,1.8,26.4-2.2c11.4-4.6,22.9-9,34.4-13.3c10.7-4,17.8-9.5,21.3-16.6C677,421.5,677.3,413.4,674.3,404.3z"/>
<path class="st0" d="M762.3,52.5c-15.1,2.7-30.2,5.5-45.3,8.5c21.9,106.3,43.7,212.7,65.6,319c-12.5,2.7-25,5.5-37.5,8.5
	c-0.9-3.5-1.7-7.1-2.6-10.6c-24.4-98.8-48.7-197.5-73.1-296.3c-0.8-3.1-1.5-6.2-2.3-9.3c-15.1,3.8-30.1,7.8-45.1,12
	c29.4,103.1,58.7,206.2,88.1,309.2c2.9,9.5,8.1,16,15.6,19.6c7.5,3.6,16.3,4.2,26.4,1.7c12-2.9,24-5.6,36-8.1
	c11.2-2.4,19-6.8,23.5-13.3c4.5-6.5,6-14.5,4.4-23.9C798.1,263.8,780.2,158.1,762.3,52.5"/>
<path class="st0" d="M955.3,147.5c-0.6-27.2-1.2-54.5-1.8-81.7c-0.2-9.5-4.1-17-11.7-22.5c-7.7-5.4-19.4-7.8-35-7.1
	c-16.8,1.1-33.6,2.3-50.4,3.8c-14.3,1.5-25.3,5.6-33,12.1c-7.7,6.6-10.9,14.7-9.9,24.4c12.7,95.9,25.3,191.8,38,287.6
	c1.5,9.8,5.7,17,12.6,21.7c6.8,4.7,15.5,6.5,25.9,5.6c12.3-1.1,24.5-2,36.8-2.8c11.4-0.7,19.8-3.9,25.1-9.7c5.4-5.8,8.1-13.4,7.8-23
	c-0.9-44.2-1.9-88.3-2.8-132.5c-13.1,0.4-26.3,0.9-39.4,1.5c2.6,45.5,5.2,91,7.7,136.5c-12.8,0.8-25.6,1.8-38.3,2.9
	c-0.3-3.6-0.7-7.2-1-10.9c-9.2-95.4-18.3-190.9-27.5-286.3c16.6-1.5,33.3-2.8,50-3.8c1.6,28.6,3.2,57.2,4.9,85.8
	C927.2,148.4,941.2,147.9,955.3,147.5"/>
<path class="st0" d="M1081.6,229.7c-4.8,53.7-9.7,107.4-14.5,161.2c11.2,1.1,22.3,2.3,33.5,3.6c14.6-116.3,29.3-232.6,43.9-348.9
	c-15.2-1.8-30.5-3.5-45.8-4.9c-4.7,52.5-9.5,104.9-14.2,157.4c-6.6-0.6-13.3-1.1-19.9-1.6c-8.3-0.6-16.6-1.1-24.8-1.5
	c2.7-52.6,5.4-105.2,8.1-157.8c-15.6-0.7-31.1-1.2-46.7-1.5c-1.8,117.2-3.6,234.4-5.4,351.6c11.4,0.2,22.8,0.6,34.2,1.1
	c2.7-53.9,5.5-107.7,8.2-161.6C1052.6,227.5,1067.1,228.5,1081.6,229.7"/>
<path class="st0" d="M1292.9,71.7c-33.6-7.8-67.3-14.6-101.2-20.6c-18.9,116.1-37.8,232.2-56.7,348.3c24.8,4.4,49.5,9.4,74,15.1
	c2.2-8.8,4.3-17.6,6.5-26.4c-13.8-3.3-27.6-6.4-41.5-9.2c0.1-0.4,0.5-2.3,1.1-5.7s1.2-6,1.6-7.9c7.9-39.8,15.9-79.5,23.8-119.3
	c15.8,3.3,31.5,6.8,47.2,10.5c2.2-8.8,4.3-17.6,6.5-26.4c-16.1-3.8-32.2-7.4-48.4-10.8c8.9-44.4,17.7-88.8,26.6-133.2
	c18.1,3.7,36.1,7.8,54.1,12C1288.6,89.4,1290.8,80.6,1292.9,71.7"/>
<path class="st0" d="M1329,250.8c13.7-43,27.4-86.1,41.1-129.1c15.9,5.2,31.7,10.5,47.4,16.1c-15.4,42.5-30.7,84.9-46.1,127.4
	C1357.4,260.2,1343.2,255.4,1329,250.8 M1426.8,112.2c-30.8-10.7-61.9-20.7-93.2-29.8c-30.9,110.5-61.7,221-92.6,331.5
	c-0.8,2.8-1.6,5.6-2.4,8.4c10.9,3.1,21.8,6.4,32.7,9.8c0.1-0.4,1.7-5.4,4.8-15.1c3.1-9.7,6.9-21.8,11.5-36.3
	c4.6-14.5,9.2-29.1,13.9-43.8c4.7-14.7,8.7-27.2,12-37.6c3.3-10.4,5.2-16.3,5.7-17.8c0.3-0.8,0.5-1.6,0.8-2.4
	c13.8,4.5,27.6,9.2,41.3,14c-18.2,50.3-36.4,100.7-54.6,151c10.5,3.9,21,7.9,31.5,12c18.2-45.4,36.5-90.8,54.7-136.1
	c2.4-5.2,3.7-10,3.9-14.4c0.2-4.4-1.9-10-6.3-16.7c7.7-2.2,13-4.6,15.7-7.3c2.8-2.7,5.3-7.4,7.8-14.1
	c14.7-36.6,29.4-73.2,44.1-109.7c3.6-8.8,3-17.3-1.9-25.3C1451.2,124.6,1441.4,117.8,1426.8,112.2z"/>
<path class="st0" d="M1517,148.7c-48.1,107.3-96.2,214.7-144.4,322c10.4,4.7,20.7,9.6,30.9,14.5c51.9-105.6,103.8-211.1,155.7-316.7
	C1545.3,161.8,1531.2,155.2,1517,148.7"/>
<path class="st0" d="M1691.2,243.2c-29.2-18.3-58.9-35.8-89-52.5c-55.8,103.6-111.5,207.2-167.3,310.8c22,12.2,43.7,25,65,38.4
	c4.9-7.6,9.8-15.2,14.7-22.9c-12-7.6-24-15-36.2-22.3c0.2-0.3,1.2-2,2.9-5c1.8-3,3.1-5.3,4.1-6.9c20.5-35,41-70,61.4-105
	c13.9,8.2,27.6,16.7,41.2,25.3c4.9-7.6,9.8-15.2,14.7-22.9c-13.9-8.9-28-17.5-42.2-25.9c22.9-39.1,45.8-78.2,68.6-117.3
	c15.9,9.4,31.6,19.1,47.2,29C1681.3,258.4,1686.2,250.8,1691.2,243.2"/>
<polyline class="st0" points="166.9,382.2 108.7,440.4 166.9,498.6 225.1,440.4 166.9,382.2 "/>
<polyline class="st0" points="1766.6,382.2 1708.3,440.4 1766.6,498.6 1824.8,440.4 1766.6,382.2 "/>
<path class="st0" d="M529.3,995.7v-63.2c0-0.9-0.1-1.8-0.2-2.7l0.9-1.6l-1.8-2c-1.3-3.5-3.7-6.5-6.8-8.6c-18-8-35-14.4-52.4-19.5
	c-85.4-22.1-159.6-33.1-247.7-36.6c-9.6,0-19.1,1.1-28.5,3.1c-5.1,0-9.9,1.5-14,3.9c-0.2,0.1-0.4,0.1-0.6,0.2l0,0.2
	c-7.7,4.9-12.8,13.5-12.8,23.3v134.2c0,10,8.1,18.2,18.2,18.2h327.8c3.2,0,6.2-0.8,8.8-2.3h270.4c17.4-4.8,28.3-22,25.4-39.8
	c-2.9-17.8-18.7-30.5-36.7-29.6l-4,0.1c-10-0.4-20,0.1-30,1.4c-56,8.2-112.6,11-169.1,8.3C559.2,981.1,542.6,985.8,529.3,995.7"/>
<path class="st0" d="M178.3,1011.4c0-10.8,8.7-19.5,19.5-19.5c10.8,0,19.5,8.7,19.5,19.5c0,10.8-8.7,19.5-19.5,19.5
	C187,1030.9,178.3,1022.2,178.3,1011.4"/>
<path class="st0" d="M625.9,743.3c-11.2,0-19.4-4.1-24.8-12.2c-5.4-8.1-6.8-19-4.2-32.5c5.4-28.9,22.6-54.8,51.6-77.5
	c29-22.7,59.6-34.1,91.8-34.1c7.7,0,15.8,0.6,24.5,1.8c8.6,1.2,17.6,3.2,26.9,5.9l20.2,5.9c3.7,1.2,7.2,2.1,10.3,2.7
	c3.2,0.6,6.9,0.9,11.4,0.9c7.9,0,13.9-1.7,18-5l3-1.4l1.5,1.4c-0.3,1.8-3.8,4.7-10.3,8.6c-12.8,6.3-27.5,9.5-44,9.5l-17.9-1.4
	l-22.7-5.9l-25.4-6.3c-6.8-1.2-10.8-2-12.2-2.3c-3.7,0-6.4,0-8,0c-10.7,0-19.9,1.1-27.5,3.4c-7.6,2.3-16.2,6.8-25.8,13.6
	c-9.5,6.8-18.5,16.7-26.9,29.8c-8.4,13.1-13.7,25.8-16,38.2c-2.1,11.4-0.8,20.9,4,28.2c4.8,7.4,12,11.1,21.5,11.1c4,0,8.6-1,14-2.9
	c5.4-2,9.3-4.1,11.9-6.6l4.9-3.6l2.7-1.4l0.8,1.4c-0.3,1.8-2.4,4.4-6.3,7.7l-9.9,8.1C651.3,738.3,639,743.3,625.9,743.3
	 M706.9,747.3c-11.7,16.6-23.6,30.4-35.7,41.6c-10.7,9.9-24.7,18.6-42,26c-17.3,7.4-33,11.1-47,11.1c-12.3,0-22.1-2.8-29.2-8.4
	c-7.1-5.6-9.8-13-8.1-22.4c1.2-6.3,3.4-11.5,6.7-15.6c3.3-4.1,7.3-6.1,12-6.1c3.7,0,6.5,1.3,8.4,3.8c1.9,2.6,2.4,6.4,1.7,11.5
	l-1.3,3.2l-2-0.5l-3.1-0.5c-1.4,0-2.8,0.8-4.1,2.5c-1.4,1.7-2.5,3.8-3.5,6.6c-1,5.1,0.7,9.9,5,14.5c1.2,1.2,3.2,2.5,6.1,3.8
	s6.7,2,11.3,2c14.4,0,28.7-5.9,42.8-17.6c14.1-11.8,29.6-31.2,46.5-58.3l14.3-22.6c9.1-15.1,17.9-27.9,26.4-38.4
	c7.3-9.3,15.3-18.2,23.8-26.7c7.6-7.2,14.7-13.1,21.1-17.6c6.4-4.5,12-7.7,16.8-9.5l8.5-2.7l3.7-1.4l1,2.3l-4.6,4.1l-5.8,5l-8.4,9.5
	l-10.1,14.9l-8.7,14.9L737,698.5C723.2,722.3,713.2,738.6,706.9,747.3z"/>
<path class="st0" d="M744.2,765.9l13.7-4.1l9.5-4.1l8.8-5.9l14.8-12.2c7.2-6.3,11.7-14,13.4-23.1c0.8-4.5-0.6-6.8-4.3-6.8
	c-3.3,0-6.9,1.7-11.1,5c-4,2.7-9.3,7.5-16,14.5l-14.5,15.8L744.2,765.9 M726.8,802.9c-1.7,9,1.5,13.6,9.4,13.6
	c15.5,0,34.4-13.1,56.9-39.3l9.5-12.2l8.2-10.8l2.4-3.6l1.6-1.4l1.2,0.9l0.1,1.4l-3,5l-8,11.3l-9.9,11.8
	c-10.8,13-21.7,23.9-32.6,32.8c-11,8.9-23.7,13.3-38.1,13.3c-21.2,0-29.7-11-25.7-33c1.5-8.1,5.1-16.7,10.7-25.8
	c5.2-9.3,12.7-19,22.5-28.9c9.1-9.9,19.9-18.2,32.6-24.9c12.6-6.6,24.2-9.9,34.7-9.9c7,0,12.2,1.7,15.5,5c3.7,2.7,5,6.9,3.9,12.7
	c-2,10.5-10.1,20.4-24.5,29.6c-14.4,9.2-31.8,16-52.2,20.6l-10.4,18.5C729.1,794.5,727.5,799,726.8,802.9z"/>
<path class="st0" d="M861.6,669.1c1-5.4,4.7-12.1,11.2-19.9c6.5-7.8,13.5-11.8,21.2-11.8c3.5,0,6,1.4,7.6,4.1
	c1.7,2.1,2.3,5.4,1.6,9.9c-1,5.1-4.7,11.8-11.3,20.1c-6.5,8.3-13.5,12.4-21,12.4c-6.8,0-10-3.3-9.7-9.9L861.6,669.1 M868,711.6
	c-0.4,2.4-3.2,6.9-8.1,13.6l-43.7,61.9c-6,8.3-9.4,15-10.4,20.2c-0.9,4.6,0.1,6.9,2.9,6.9c3,0,7.5-2.4,13.4-7.1
	c5.9-4.7,11.2-9.5,15.8-14.3l14-15l10.4-12.3c4.5-5.5,7.4-9.3,8.5-11.6c1.1-2.3,2.4-3.7,4-4.3l1.1,1.8l-2.7,5.4l-8.1,11.3
	c-0.9,1.5-2,3-3.2,4.5c-1.2,1.5-3.4,4.1-6.8,7.7l-18.4,19.4c-6.2,6.6-13.4,12.8-21.8,18.5c-7.7,4.8-14.9,7.2-21.4,7.2
	c-6.3,0-11.1-2-14.2-6.1c-3.1-4.1-4-9.6-2.7-16.6c0.8-4.2,2-7.9,3.5-10.9c1.6-3,5-8.3,10.2-15.9l37.6-52.7c3.9-5.4,6-9,6.3-10.8
	l1-5.4h32.5L868,711.6z"/>
<path class="st0" d="M901.9,730.6l-8.7-1.8l-7.7,9.5l-5,8.1l-6.9,9l-1.6,0.9l-1.1-1.8l1.4-3.6l1.8-2.3l4.5-6.8l7.5-11.8l9.4-14
	l4.9-11.3c5.1,5.1,11,7.7,17.8,7.7c2.1,0,4.3,0,6.6,0c2.7-0.9,5.3-1.7,7.8-2.3c2.4-0.6,4.9-1.4,7.2-2.3c2.4-0.9,6.4-2.6,11.9-5
	l-17.7,21.7c-2.7,3-5.1,6-7.3,9c-0.9,1.2-3,4.1-6.1,8.6l-17.7,25.8c-5.9,9-9.3,16-10.2,20.8c-1.6,8.7-0.1,13.1,4.5,13.1
	c3,0,9.5-4.8,19.5-14.5l10.8-10.8c10-11.1,16-18.6,18-22.4c2-3.8,3.6-5.6,4.7-5.6l1,2.3l-2.7,5l-9.2,11.8l-9.1,11.3l-10.7,12.2
	l-15.1,15.4c-6.8,6.3-12.5,10.8-17.2,13.6c-3.1,1.5-5.5,2.5-7.4,2.9c-1.8,0.5-4,0.7-6.6,0.7c-5.1,0-9.1-1.9-12-5.6
	c-2.9-3.8-3.7-9.1-2.4-16c1.7-9,5.6-17.6,11.8-25.8l15.6-19.9l16.6-17.6l16.5-13.6l-10.3,4.5L901.9,730.6"/>
<path class="st0" d="M1066.6,621.7c-0.4,2.4-3.2,7.4-8.4,14.9L954.8,783c-7.7,9.9-11.9,17.2-12.8,21.7c-0.8,4.5,0.4,6.8,3.7,6.8
	c5.2,0,14.8-6.7,28.9-20.1c14.1-13.4,23.3-23.4,27.6-30.1l6.8-9.9l2.8-1.8l1.1,1.8l-2.7,5l-9.1,11.3l-9,10.8l-25.3,27.1
	c-12.7,13.3-25.6,19.9-38.6,19.9c-6.5,0-11.1-1.9-13.8-5.6c-2.7-3.8-3.3-9.3-2-16.5c0.7-3.9,2.2-8.1,4.5-12.6
	c2.2-4.5,6.2-10.8,11.9-19l99.4-140.2c2.9-4.5,4.6-7.7,4.9-9.5l0.9-5h32.8L1066.6,621.7"/>
<path class="st0" d="M1059,669.1c1-5.4,4.7-12.1,11.2-19.9c6.5-7.8,13.5-11.8,21.2-11.8c3.5,0,6,1.4,7.6,4.1
	c1.7,2.1,2.3,5.4,1.6,9.9c-1,5.1-4.7,11.8-11.3,20.1c-6.5,8.3-13.5,12.4-21,12.4c-6.8,0-10-3.3-9.7-9.9L1059,669.1 M1065.4,711.6
	c-0.4,2.4-3.2,6.9-8.1,13.6l-43.7,61.9c-6,8.3-9.4,15-10.4,20.2c-0.9,4.6,0.1,6.9,2.9,6.9c3,0,7.5-2.4,13.4-7.1
	c5.9-4.7,11.2-9.5,15.8-14.3l14-15l10.4-12.3c4.5-5.5,7.4-9.3,8.5-11.6c1.1-2.3,2.4-3.7,4-4.3l1.1,1.8l-2.7,5.4l-8.1,11.3
	c-0.9,1.5-2,3-3.2,4.5c-1.2,1.5-3.4,4.1-6.8,7.7l-18.4,19.4c-6.2,6.6-13.4,12.8-21.8,18.5c-7.7,4.8-14.9,7.2-21.4,7.2
	c-6.3,0-11.1-2-14.2-6.1c-3.1-4.1-4-9.6-2.7-16.6c0.8-4.2,2-7.9,3.5-10.9c1.6-3,5-8.3,10.2-15.9l37.6-52.7c3.9-5.4,6-9,6.3-10.8
	l1-5.4h32.5L1065.4,711.6z"/>
<path class="st0" d="M1093.1,719.8c1.9-2.7,3.4-5.7,4.5-9l0.3-3.6h32.8l-0.1,4.5c-0.4,2.1-1.7,4.8-3.9,8.1l-12.2,16.3l13.7-12.2
	l15.8-12.2c7.8-5.7,15.7-8.6,23.8-8.6c6,0,10.5,2,13.5,5.9c3,3.9,3.9,8.9,2.8,14.9c-0.8,4.5-3.8,10.5-9,18.1l-18.3,24.9l-19.5,26.2
	c-3,4.8-5,8.6-5.9,11.3c-0.7,3.6,0.7,5.4,4.2,5.4c3.3,0,8.8-3.2,16.6-9.5c7.8-6.3,15.7-14.2,23.8-23.5l10.7-12.2l7.5-10.4
	c1.2-2.7,2.6-4.2,4.3-4.5l1.4,1.8l-2.6,4.5l-8.6,10.8c-11,15.6-23.9,29.1-38.5,40.7c-14.7,11.5-26.3,17.3-34.9,17.3
	c-11.8,0-16.5-6.5-14.1-19.4c0.8-4.2,3.1-9.5,6.9-15.8c3.8-6.3,11.4-16.7,22.6-31.1l20-25.7c1.9-3,3.5-6.3,4.6-9.9
	c0.8-4.5-0.5-6.8-4-6.8c-7.3,0-16.1,4.8-26.3,14.5l-11.5,10.8l-7.8,8.1l-50.7,71.4l-33.8,0.1L1093.1,719.8"/>
<path class="st0" d="M1237,807c-13.7,12.4-28,18.5-42.9,18.5c-18.9,0-26.4-10.1-22.7-30.3c1.6-8.4,5.5-18.2,11.9-29.2
	c6.4-11,17-24,31.9-38.9c14.9-14.9,32.3-22.4,52.4-22.4c5.6,0,10.3,1.4,14.3,4.1c3.9,2.7,5.6,6.2,5.1,10.4c-0.6,3.3-2.3,6.3-5.2,9
	l-6.1,4.5l-3.8,1.8l-1-2.3l1.9-4.5l0.6-3.2c1.4-7.5-0.7-11.3-6.3-11.3c-7.5,0-19.9,11.1-37.5,33.4c-17.5,22.3-27.7,40.7-30.3,55.1
	c-1.7,9,1.8,13.6,10.4,13.6c5.1,0,10.7-1.9,16.6-5.6c5.9-3.8,13.4-10.2,22.3-19.2c3.7-3.6,7.2-7.2,10.6-10.8s6.6-7.2,9.9-10.8
	c4.5-5.4,7.5-9.6,9-12.4c1.5-2.9,2.7-4.7,3.8-5.6l2-1.4l0.7,1.8l-2.7,5l-8.4,11.3c-2.9,4.5-8.3,10.8-16.1,19
	c-6.7,7.2-10.7,11.5-12,12.9C1243.9,800.9,1241.2,803.4,1237,807"/>
<path class="st0" d="M1366.4,630.7c2.6-4.2,4.4-7.5,5.3-9.9l0.7-3.6h32.8l-0.4,4l-2.6,5.8l-4.6,8.2l-83.6,117.8l12.8-8.6l16.8-11.3
	l19.3-13.5c0.5-0.3,3.2-2.1,8-5.4c4.8-3.3,8.5-5.7,11.1-7.2c3.8-1.5,7.8-2.6,12.1-3.2c6.1,0,8.5,3.1,7.4,9.2
	c-1.2,6.4-4.5,11.7-9.9,15.6h-4.5l-0.2-4.5l-3.1-4.1l-5-1.4l-5.1,1.4l-11.1,5.4l-14.8,8.1c-4.2,2.4-9.9,6.5-17.3,12.2
	c9.5-3.3,16.4-5,20.8-5c14,0,19.9,5.9,17.7,17.6c-0.4,2.1-1.3,4.4-2.7,6.8c-1.6,3.6-4.4,8.1-8.5,13.6l-10.7,16.3
	c-2.1,3.9-3.8,7.8-5,11.8c-0.7,3.9,0.4,6,3.4,6.3c3.7,0,9.4-3.3,16.9-9.9c7.5-6.6,15.7-15.4,24.4-26.2l10.3-12.2l8.3-10.8
	c1.3-3,2.8-4.7,4.8-5l1,2.3l-2.6,4.5l-8.8,11.8l-9.8,11.3l-11,12.2c-20.1,22.9-36.6,34.3-49.4,34.3c-6.5,0-11.4-2.1-14.7-6.3
	c-3.3-4.2-4.3-9.6-3.1-16.3c0.8-4.2,2.6-8.1,5.3-11.8L1330,774c5.5-6.9,8.8-13.4,9.9-19.4c0.8-4.2-0.8-6.3-4.8-6.3
	c-12.5,0-26.1,10.3-40.6,30.8l-29.3,42.2l-33.1-0.2L1366.4,630.7"/>
</svg>
